<?xml version='1.0' encoding='UTF-8'?>
<!-- Gallo Music Publishers rooster — auto-traced from official logo -->
<svg viewBox="45 8 335 525" xmlns="http://www.w3.org/2000/svg" preserveAspectRatio="xMidYMid meet">
<path d="M0 0 C3.987 2.519 7.901 5.504 9.406 10.117 C9.688 12.043 9.688 12.043 9.75 15.105 C6.675 17.155 5.96 17.357 2.477 17.414 C1.652 17.439 0.827 17.464 -0.023 17.49 C-1.75 17.525 -3.476 17.557 -5.203 17.584 C-9.953 17.736 -13.475 17.88 -17.25 21.105 C-18.371 24.89 -18.648 27.1 -17.188 30.793 C-8.813 40.788 6.731 41.227 18.812 42.48 C29.006 43.539 39.008 45.099 49.062 47.043 C50.33 47.284 51.598 47.525 52.905 47.773 C80.356 53.212 107.492 65.367 123.601 89.281 C127.176 94.956 130.029 100.987 132.75 107.105 C133.16 108.004 133.57 108.902 133.992 109.828 C135.108 112.557 135.953 115.266 136.75 118.105 C136.93 118.711 137.111 119.317 137.297 119.94 C141.084 133.252 141.152 146.752 141.188 160.48 C141.194 161.385 141.2 162.289 141.206 163.221 C141.256 174.58 140.501 185.063 137.75 196.105 C137.46 197.316 137.171 198.526 136.872 199.773 C129.441 229.79 106.664 255.023 83.637 274.504 C81.297 276.49 79.026 278.546 76.75 280.605 C73.813 283.257 70.864 285.888 67.875 288.48 C54.192 300.436 40.935 312.736 29.75 327.105 C28.962 328.076 28.175 329.047 27.363 330.047 C3.562 359.901 -11.526 397.385 -17.599 434.959 C-18.359 437.463 -19.188 438.517 -21.25 440.105 C-25.039 440.695 -26.933 440.264 -30.375 438.543 C-34.125 435.364 -36.78 431.91 -37.601 427.011 C-37.715 424.759 -37.698 422.547 -37.625 420.293 C-37.624 419.55 -37.622 418.807 -37.621 418.041 C-37.436 406.083 -33.473 395.127 -29.688 383.918 C-29.422 383.124 -29.156 382.331 -28.882 381.513 C-24.417 368.202 -19.563 355.103 -14.25 342.105 C-2.474 312.983 3.368 286.423 3.125 254.855 C3.121 253.786 3.116 252.716 3.112 251.613 C2.858 197.958 -12.105 156.488 -44.438 113.918 C-59.082 94.524 -69.274 76.144 -67.25 51.105 C-66.446 46.774 -65.124 43.082 -63.25 39.105 C-62.776 38.052 -62.301 36.999 -61.812 35.914 C-57.56 27.256 -52.022 20.82 -45.25 14.105 C-44.542 13.364 -43.835 12.623 -43.105 11.859 C-32.053 1.018 -15.21 -6.982 0 0 Z " fill="currentColor" transform="translate(270.25,118.89453125)"/>
<path d="M0 0 C1.584 0.027 1.584 0.027 3.199 0.055 C38.994 1.582 73.222 24.341 97.535 49.285 C106.106 58.725 113.533 69.021 120 80 C120.406 80.686 120.812 81.373 121.23 82.08 C137.114 109.381 143.448 139.62 143.312 170.938 C143.311 171.79 143.31 172.642 143.308 173.52 C143.248 192.799 141.87 211.527 136 230 C135.63 231.214 135.26 232.429 134.879 233.68 C130.202 248.431 124.508 261.709 115 274 C114.363 274.833 113.726 275.665 113.07 276.523 C108.039 282.64 101.955 287.218 95 291 C94.01 291 93.02 291 92 291 C92.643 286.913 93.452 282.911 94.41 278.887 C99.946 254.994 101.823 235.869 89 214 C86.554 210.439 83.901 207.198 81 204 C80.288 203.207 79.577 202.414 78.844 201.598 C73.769 196.229 68.499 192.467 62 189 C61.344 188.609 60.688 188.219 60.012 187.816 C48.817 181.489 33.935 181.444 21.812 184.688 C12.699 187.577 5.309 191.393 -2.09 197.449 C-4 199 -4 199 -7 201 C-8.162 177.983 1.011 163.526 15 146 C15.33 145.67 15.66 145.34 16 145 C-6.971 148.828 -22.25 166.804 -35.239 184.708 C-36.988 187.157 -38.727 189.612 -40.441 192.086 C-40.956 192.718 -41.47 193.349 -42 194 C-42.66 194 -43.32 194 -44 194 C-46.011 185.996 -46.335 178.291 -46.312 170.062 C-46.329 168.864 -46.345 167.666 -46.361 166.432 C-46.372 146.016 -37.529 128.919 -23.688 114.25 C-18.663 109.376 -12.923 105.678 -7 102 C-19.74 101.005 -30.843 106.014 -40.531 114.117 C-47.404 120.587 -52.328 127.879 -57 136 C-57.606 137.044 -58.212 138.088 -58.836 139.164 C-67.627 155.512 -72.307 174.131 -77 192 C-81.145 191.505 -82.687 189.471 -85.25 186.312 C-104.34 161.996 -113.222 130.264 -109.539 99.547 C-104.887 67.762 -87.275 36.936 -61.934 17.094 C-43.118 3.665 -23.054 -0.749 0 0 Z " fill="currentColor" transform="translate(114,197)"/>
<path d="M0 0 C2.819 2.222 3.717 4.459 4.797 7.832 C5.112 8.789 5.428 9.746 5.752 10.732 C6.082 11.749 6.411 12.765 6.75 13.812 C12.693 31.942 12.693 31.942 24 47 C25.32 47 26.64 47 28 47 C30.666 39.003 28.715 30.751 26 23 C25.67 22.67 25.34 22.34 25 22 C24.706 19.204 24.662 17.563 26.125 15.125 C28 14 28 14 30.875 14.062 C35.282 15.384 37.83 16.875 40.105 21.008 C41.47 23.979 42.736 26.984 44 30 C45.459 33.405 46.945 36.797 48.438 40.188 C48.797 41.031 49.156 41.874 49.526 42.742 C51.974 48.305 54.757 53.576 59 58 C59.66 58 60.32 58 61 58 C61.719 48.829 61.719 48.829 59.5 40.125 C57.554 36.072 57.693 33.453 58 29 C59 28 59 28 61.188 27.5 C66.172 28.386 68.689 33.127 71.48 37.115 C72.981 39.39 74.435 41.687 75.875 44 C76.393 44.823 76.911 45.646 77.445 46.494 C81.097 52.361 84.462 58.335 87.501 64.543 C89.287 68.283 89.287 68.283 93 70 C93.054 67.938 93.093 65.875 93.125 63.812 C93.148 62.664 93.171 61.515 93.195 60.332 C93.003 57.054 92.318 54.966 91 52 C90.875 49.188 90.875 49.188 91 47 C93.062 46.125 93.062 46.125 96 46 C103.599 50.079 108.503 58.802 111.293 66.625 C113.24 73.485 114.303 80.056 114.742 87.156 C115.465 95.133 117.575 101.335 122.793 107.441 C124 109 124 109 124 111 C124.544 111.219 125.088 111.438 125.648 111.664 C128.775 113.44 131.124 115.834 133.625 118.375 C134.115 118.857 134.605 119.339 135.109 119.836 C139.19 123.939 141.283 126.797 141.312 132.625 C141.338 133.789 141.338 133.789 141.363 134.977 C141.243 135.644 141.124 136.312 141 137 C136.967 139.688 133.656 139.65 129 139 C116.672 135.437 108.249 128.73 101.766 117.809 C90.876 100.487 72.45 94.548 53.531 89.73 C31.484 83.368 11.253 70.26 0 50 C-7.644 36.089 -11.76 19.919 -10 4 C-7.914 -1.46 -5.419 -1.327 0 0 Z " fill="currentColor" transform="translate(196,12)"/>
</svg>
